<?xml version="1.0" standalone="no"?>
<!DOCTYPE svg PUBLIC "-//W3C//DTD SVG 20010904//EN"
 "http://www.w3.org/TR/2001/REC-SVG-20010904/DTD/svg10.dtd">
<svg version="1.0" xmlns="http://www.w3.org/2000/svg"
 width="263.000000pt" height="263.000000pt" viewBox="0 0 263.000000 263.000000"
 preserveAspectRatio="xMidYMid meet">
<metadata>
Created by potrace 1.14, written by Peter Selinger 2001-2017
</metadata>
<g transform="translate(0.000000,263.000000) scale(0.100000,-0.100000)"
fill="#000000" stroke="none">
<path d="M0 2095 l0 -535 44 0 c34 0 46 -4 49 -17 4 -17 5 -17 6 -1 1 15 10
17 61 16 69 -2 66 2 74 -108 4 -55 23 -212 42 -340 36 -246 32 -297 -28 -390
-53 -82 -127 -259 -154 -368 -23 -96 -44 -242 -44 -314 l0 -38 45 0 c40 0 45
3 45 23 0 48 23 101 63 144 47 51 122 93 167 93 17 0 57 11 90 24 81 33 143
44 290 51 162 8 213 14 225 27 7 7 0 9 -23 6 -33 -5 -45 3 -48 32 -3 34 -6 86
-5 97 1 14 124 53 168 53 29 0 30 -2 36 -52 6 -45 4 -55 -15 -72 -14 -13 -17
-21 -9 -24 6 -2 21 7 33 20 11 12 25 22 30 20 17 -5 48 9 45 20 -1 6 4 13 12
16 10 3 11 0 5 -9 -6 -11 -5 -12 7 -3 15 12 40 11 83 -5 39 -15 34 -38 -7 -33
-54 6 -152 -27 -133 -45 5 -4 11 -2 13 5 3 6 9 10 14 6 5 -3 9 -1 9 4 0 16 70
25 86 11 18 -15 104 7 104 26 0 8 18 16 40 20 22 4 38 11 35 16 -4 5 7 6 23 3
15 -3 47 -1 70 5 l42 12 -17 26 -17 26 -9 -27 c-12 -36 -51 -45 -85 -18 -22
16 -27 27 -26 61 0 28 -4 41 -13 41 -22 0 -15 27 12 44 13 9 40 17 58 18 l35
3 -19 26 c-18 26 -18 27 1 32 11 3 18 1 14 -4 -13 -22 15 -7 30 16 15 23 15
24 -1 19 -12 -4 -10 0 6 13 13 10 35 29 49 42 l26 24 23 -29 c27 -34 30 -54 7
-54 -8 0 -12 5 -9 10 9 14 -4 51 -16 44 -5 -3 -7 -9 -4 -14 7 -11 -31 -23 -45
-15 -5 3 -10 2 -10 -3 0 -11 32 -20 115 -32 52 -7 65 -14 97 -49 21 -22 38
-34 38 -26 0 7 16 19 36 25 20 7 39 21 43 33 5 12 17 22 27 22 15 0 18 6 16
30 -2 24 4 34 31 53 37 24 57 28 74 11 8 -8 31 -9 69 -4 52 6 55 8 33 19 -30
15 -34 69 -6 74 22 4 97 -45 97 -64 0 -9 11 -14 28 -14 26 0 62 -25 62 -43 0
-3 -10 -15 -22 -26 -20 -20 -20 -21 -2 -26 10 -3 35 -14 54 -23 30 -14 34 -22
32 -46 -3 -24 -1 -27 16 -22 15 5 20 2 18 -11 -1 -11 9 -19 32 -24 18 -4 35
-9 38 -12 9 -8 -6 -47 -17 -47 -6 0 -8 4 -5 9 4 5 -4 7 -16 3 -19 -4 -21 -3
-13 9 6 8 2 6 -8 -4 -23 -26 -22 -48 4 -54 12 -4 18 -11 15 -20 -3 -8 -6 -22
-6 -30 0 -10 -6 -14 -19 -10 -17 4 -21 -4 -32 -62 -6 -36 -20 -85 -30 -108
-17 -39 -22 -43 -54 -43 -19 0 -35 5 -35 10 0 6 -24 10 -53 10 -47 0 -55 3
-65 24 -8 18 -7 27 3 37 12 12 -3 14 -99 17 -96 2 -115 0 -133 -15 -11 -10
-23 -27 -25 -38 -2 -11 -10 -18 -19 -16 -8 2 -54 3 -104 2 -95 -3 -125 -15
-125 -53 0 -11 -5 -29 -12 -41 -14 -26 -38 -52 -38 -40 0 4 -4 3 -8 -2 -4 -6
-53 -30 -110 -55 -57 -24 -105 -47 -108 -52 -3 -4 -13 -8 -22 -8 -9 0 -28 -9
-42 -20 -25 -19 -22 -20 638 -20 l662 0 0 639 c0 570 -2 640 -16 645 -8 3 -12
10 -9 16 4 6 11 8 16 5 5 -4 9 146 9 384 0 269 -3 391 -11 391 -5 0 -7 5 -3
12 4 6 3 8 -4 4 -13 -8 -63 14 -56 25 3 5 13 9 23 9 38 0 53 34 49 107 -2 37
-8 77 -12 88 -6 16 -6 17 3 5 14 -19 15 3 2 28 -29 55 -42 96 -37 118 4 13 1
32 -5 42 -9 15 -8 24 6 45 9 15 21 25 25 22 15 -9 22 15 9 31 -10 12 -14 12
-20 2 -6 -9 -9 -10 -9 -1 0 9 -100 12 -427 13 -311 0 -424 -3 -413 -11 12 -9
11 -10 -5 -4 -11 4 -54 9 -95 12 l-75 5 -12 -32 c-8 -22 -17 -31 -30 -28 -29
5 -27 33 4 45 21 8 -175 11 -754 12 l-783 1 0 -535z m1638 478 c-2 -10 -13
-19 -26 -21 -24 -4 -25 -2 -16 22 9 23 46 21 42 -1z m102 7 c-20 -13 -43 -13
-35 0 3 6 16 10 28 10 18 0 19 -2 7 -10z m112 -13 c-7 -8 -9 -17 -5 -20 3 -4
1 -7 -5 -7 -15 0 -15 23 0 38 16 16 24 6 10 -11z m235 -40 c-4 -14 -67 -23
-67 -9 0 15 9 19 41 20 19 0 29 -4 26 -11z m-337 -62 c0 -8 -4 -15 -9 -15 -13
0 -22 16 -14 24 11 11 23 6 23 -9z m-1330 -169 c0 -17 2 -18 10 -6 8 13 11 11
16 -7 4 -13 10 -23 13 -23 10 0 31 -94 30 -128 -1 -17 -3 -21 -6 -9 -8 30 -20
18 -15 -15 3 -18 11 -37 18 -41 8 -4 14 -23 14 -41 0 -18 4 -56 9 -83 6 -28
15 -120 21 -204 7 -85 16 -158 20 -162 4 -5 47 -9 94 -9 84 1 87 0 100 -26 8
-15 18 -46 21 -67 4 -22 11 -45 16 -50 4 -6 17 -36 29 -68 24 -63 65 -117 111
-144 34 -21 36 -32 8 -67 -17 -22 -28 -26 -69 -26 -42 0 -52 -4 -72 -30 -25
-31 -29 -32 -148 -31 -35 1 -49 -4 -67 -24 -13 -13 -30 -22 -37 -19 -16 6
-101 -40 -114 -60 -11 -20 -84 -66 -94 -60 -5 3 -5 11 1 17 10 14 10 72 -2 83
-12 12 -8 24 8 24 8 0 15 4 15 10 0 5 8 7 18 4 13 -5 12 -2 -4 13 -12 10 -27
28 -33 40 -12 24 -15 77 -3 70 10 -7 9 157 -2 164 -9 7 -5 22 16 50 6 10 8 24
3 35 -4 11 -9 35 -11 56 -2 31 1 37 22 42 13 4 24 10 24 15 0 5 -9 7 -20 4
-19 -5 -20 0 -20 91 0 53 4 96 9 96 5 0 7 9 4 20 -3 11 -9 20 -14 20 -10 0 -7
60 5 78 4 7 5 19 2 27 -7 20 4 19 20 -2 12 -17 13 -17 14 -1 0 9 -6 21 -13 25
-14 9 -37 57 -37 78 0 8 7 11 20 8 14 -4 21 1 26 21 3 15 11 26 18 25 21 -2
56 13 56 25 0 6 -9 22 -20 36 l-20 25 -19 -22 c-11 -13 -24 -23 -30 -23 -15 0
-27 53 -13 58 14 4 15 45 3 90 -10 33 1 45 14 15 7 -16 9 -15 15 7 4 14 5 44
2 67 -4 39 -3 41 17 36 13 -3 21 -13 21 -27z m-60 4 c0 -5 -4 -10 -9 -10 -6 0
-13 5 -16 10 -3 6 1 10 9 10 9 0 16 -4 16 -10z m530 -10 c0 -5 -4 -10 -10 -10
-5 0 -10 5 -10 10 0 6 5 10 10 10 6 0 10 -4 10 -10z m621 -208 c15 -9 57 -51
94 -92 62 -69 65 -75 46 -83 -11 -5 -22 -16 -26 -25 -4 -12 1 -13 25 -9 25 6
30 3 30 -13 0 -10 -9 -25 -21 -33 -20 -14 -18 -16 28 -33 63 -23 83 -41 83
-74 0 -15 7 -44 15 -63 8 -20 15 -48 15 -62 0 -34 38 -48 106 -39 29 3 57 3
63 -1 6 -3 80 -8 164 -11 158 -4 428 -22 435 -28 10 -11 22 -148 22 -274 0
-94 5 -167 16 -213 9 -38 14 -74 12 -81 -2 -6 -20 5 -41 26 -41 41 -223 131
-333 166 -38 11 -107 23 -154 26 -47 2 -131 10 -188 16 l-103 11 6 26 c3 14
14 42 24 62 l17 37 -85 0 c-47 1 -92 1 -98 1 -7 1 -22 10 -33 21 -18 18 -21
18 -35 3 -20 -20 -12 -62 15 -82 24 -16 26 -31 5 -31 -8 0 -15 7 -15 15 0 11
-11 15 -41 15 -23 0 -38 4 -34 10 3 5 -6 12 -21 16 -23 6 -25 11 -22 45 4 43
-7 50 -79 44 -30 -2 -43 1 -47 11 -3 8 -11 14 -18 13 -25 -3 -38 1 -38 12 0 6
-11 20 -25 31 -14 11 -25 26 -25 35 0 11 -6 14 -23 10 -12 -4 -29 -2 -37 3
-14 9 -12 12 6 9 11 -1 23 25 16 35 -3 6 -7 27 -8 46 -1 19 -5 46 -8 60 -18
76 -18 89 2 118 21 28 21 29 1 46 -11 9 -25 14 -30 10 -6 -3 -17 2 -24 12 -49
65 52 182 190 224 22 6 54 18 70 25 69 29 73 30 106 7z m1060 -1 l24 -20 -30
3 c-18 2 -31 10 -33 20 -5 21 11 20 39 -3z m-2221 -55 c0 -3 -4 -8 -10 -11 -5
-3 -10 -1 -10 4 0 6 5 11 10 11 6 0 10 -2 10 -4z m1714 -57 c-3 -5 -10 -7 -15
-3 -5 3 -7 10 -3 15 3 5 10 7 15 3 5 -3 7 -10 3 -15z m492 -274 c18 -15 18
-15 -10 -13 -16 2 -31 9 -34 16 -5 17 20 15 44 -3z m-1516 -125 c11 -7 4 -10
-25 -10 -44 0 -65 -14 -65 -41 0 -28 24 -41 37 -19 8 12 19 17 33 13 15 -4 18
-9 11 -16 -18 -18 -13 -47 8 -47 10 0 21 -6 24 -14 3 -7 18 -17 34 -20 67 -17
96 -63 53 -86 -48 -26 -166 44 -197 117 -18 43 -17 98 3 117 17 18 61 21 84 6z
m104 -86 c9 -3 16 -11 16 -16 0 -6 -6 -8 -14 -5 -8 3 -16 1 -18 -5 -2 -6 -9
-8 -16 -4 -12 7 -6 36 8 36 5 0 15 -3 24 -6z m620 -270 c3 -8 2 -12 -4 -9 -6
3 -10 10 -10 16 0 14 7 11 14 -7z m-1442 -166 c-7 -7 -12 -8 -12 -2 0 14 12
26 19 19 2 -3 -1 -11 -7 -17z m1432 -145 c5 -18 13 -33 17 -33 17 0 9 -27 -15
-51 -13 -13 -27 -35 -31 -48 -5 -17 -10 -20 -18 -12 -7 7 -12 15 -12 19 -1 11
-37 66 -53 79 -11 9 -7 17 25 47 47 44 74 43 87 -1z m73 20 c-3 -5 22 -6 55
-5 103 6 133 -14 87 -57 -16 -15 -27 -18 -39 -11 -20 11 -31 4 -23 -16 3 -8 0
-14 -6 -14 -6 0 -11 4 -11 8 0 11 -49 34 -59 28 -12 -8 -34 11 -38 31 -4 27 4
43 22 43 9 0 14 -3 12 -7z m-772 -23 c4 -6 -7 -10 -27 -10 l-33 0 38 -31 c20
-17 37 -39 37 -50 0 -43 -52 -109 -85 -109 -6 0 -34 21 -63 48 -35 31 -52 55
-52 71 0 34 36 61 80 61 24 0 40 5 44 15 6 17 51 20 61 5z m1050 -22 c-11 -36
-18 -38 -59 -24 -28 10 -34 15 -21 20 9 3 20 4 25 1 4 -3 10 2 14 10 3 8 15
15 26 15 17 0 20 -4 15 -22z m-555 -13 c6 -8 9 -19 5 -25 -3 -5 1 -13 10 -16
14 -6 13 -10 -10 -34 -32 -34 -69 -33 -73 1 -2 13 -10 31 -19 41 -16 18 -10
25 35 38 38 12 38 12 52 -5z m-202 -38 c-2 -16 -11 -23 -30 -25 -49 -6 -36
-22 37 -47 18 -7 17 -9 -10 -21 -40 -18 -62 -17 -62 1 0 8 4 15 9 15 4 0 8 5
8 11 0 6 -7 8 -16 5 -10 -4 -27 5 -46 23 -39 38 -29 59 15 33 18 -10 40 -17
50 -15 22 6 12 23 -14 23 -26 0 -24 19 4 29 30 12 59 -5 55 -32z m77 -17 c3
-5 -3 -10 -15 -10 -12 0 -18 5 -15 10 3 6 10 10 15 10 5 0 12 -4 15 -10z m476
0 c10 -6 19 -18 19 -26 0 -13 -4 -12 -25 3 -37 27 -33 43 6 23z m-14 -36 c9
-24 -10 -36 -40 -25 -19 8 -27 7 -31 -5 -6 -16 -34 -18 -55 -5 -20 13 2 38 37
44 59 9 83 7 89 -9z m-466 -21 c13 -15 12 -15 -8 -4 -24 12 -29 21 -14 21 5 0
15 -7 22 -17z m-213 -56 l31 -13 -19 -29 c-11 -17 -20 -48 -21 -70 -1 -22 -3
-32 -6 -23 -2 10 -15 20 -29 23 -13 3 -35 7 -49 10 -16 4 -25 1 -25 -7 0 -10
-2 -10 -9 0 -8 14 -3 67 6 58 3 -3 20 6 38 19 17 14 40 25 51 25 16 0 17 2 4
10 -21 14 -8 12 28 -3z m642 9 c0 -2 -9 -6 -20 -9 -11 -3 -20 -1 -20 4 0 5 9
9 20 9 11 0 20 -2 20 -4z m-713 -12 c-3 -3 -12 -4 -19 -1 -8 3 -5 6 6 6 11 1
17 -2 13 -5z m1339 -36 c-10 -6 -20 -7 -24 -3 -9 8 20 25 31 18 5 -3 2 -10 -7
-15z m-1076 -58 c35 -35 21 -93 -27 -111 -31 -12 -90 3 -127 32 -34 27 -32 68
4 86 41 21 126 17 150 -7z m-432 -38 c3 -17 -2 -22 -17 -22 -16 0 -21 6 -21
26 0 33 33 30 38 -4z m1562 -16 c0 -3 -4 -8 -10 -11 -5 -3 -10 -1 -10 4 0 6 5
11 10 11 6 0 10 -2 10 -4z"/>
<path d="M444 2204 c3 -9 6 -21 6 -27 0 -8 3 -8 10 -1 12 12 3 44 -12 44 -6 0
-7 -7 -4 -16z"/>
<path d="M370 2176 c0 -8 5 -18 10 -21 6 -3 10 3 10 14 0 12 -4 21 -10 21 -5
0 -10 -6 -10 -14z"/>
<path d="M356 2075 c4 -8 8 -15 10 -15 2 0 4 7 4 15 0 8 -4 15 -10 15 -5 0 -7
-7 -4 -15z"/>
<path d="M460 2011 c0 -5 7 -14 15 -21 13 -10 15 -9 15 9 0 12 -6 21 -15 21
-8 0 -15 -4 -15 -9z"/>
<path d="M361 1929 c0 -9 6 -22 14 -29 10 -9 15 -9 15 -1 0 6 -4 11 -9 11 -5
0 -12 8 -14 18 -4 14 -5 14 -6 1z"/>
<path d="M382 1729 c2 -7 10 -15 17 -17 8 -3 12 1 9 9 -2 7 -10 15 -17 17 -8
3 -12 -1 -9 -9z"/>
<path d="M360 1660 c0 -5 5 -10 10 -10 6 0 10 5 10 10 0 6 -4 10 -10 10 -5 0
-10 -4 -10 -10z"/>
<path d="M350 1464 c0 -8 5 -12 10 -9 6 3 10 10 10 16 0 5 -4 9 -10 9 -5 0
-10 -7 -10 -16z"/>
<path d="M387 1331 c-4 -16 0 -19 24 -19 31 1 36 7 17 26 -18 18 -35 15 -41
-7z"/>
<path d="M1481 1831 l-33 -18 33 -1 c20 -1 44 7 59 18 l25 20 -25 -1 c-14 0
-40 -8 -59 -18z"/>
<path d="M1394 1795 c-33 -14 -77 -62 -71 -79 10 -29 102 -15 139 22 21 21 -2
34 -29 17 -32 -21 -40 -12 -19 21 22 32 19 36 -20 19z"/>
<path d="M1491 1774 c-10 -12 -10 -19 -2 -27 14 -14 47 15 37 32 -9 15 -18 13
-35 -5z"/>
<path d="M1685 1668 c-15 -12 -35 -22 -44 -23 -25 -2 -28 -20 -3 -23 12 -2 22
1 22 6 0 6 12 13 27 17 31 7 53 23 53 36 0 16 -27 10 -55 -13z"/>
<path d="M1740 1548 c-21 -9 -22 -12 -7 -15 23 -6 47 3 47 17 0 12 -8 12 -40
-2z"/>
<path d="M1662 1508 c-24 -13 -39 -24 -33 -26 12 -4 67 24 76 38 8 14 6 13
-43 -12z"/>
<path d="M989 1423 c6 -13 20 -27 31 -33 24 -13 63 -13 55 0 -3 6 -16 10 -27
10 -12 0 -33 10 -46 23 l-25 22 12 -22z"/>
<path d="M2605 2561 c-3 -5 -1 -12 4 -15 5 -3 11 1 15 9 6 16 -9 21 -19 6z"/>
<path d="M2155 890 c3 -5 12 -10 19 -10 8 0 19 -7 26 -15 7 -8 18 -15 24 -15
17 1 -43 50 -60 50 -8 0 -12 -4 -9 -10z"/>
<path d="M2160 722 c0 -5 8 -13 18 -18 14 -6 12 -8 -13 -14 -23 -6 -17 -8 28
-8 31 1 57 2 57 4 0 2 -17 11 -37 21 -21 9 -41 19 -45 21 -5 2 -8 -1 -8 -6z"/>
<path d="M1470 621 c0 -6 9 -11 19 -11 11 0 27 -10 35 -22 12 -17 16 -18 16
-6 0 18 -16 33 -47 42 -14 5 -23 3 -23 -3z"/>
<path d="M2313 583 c-18 -2 -33 -9 -33 -15 0 -5 7 -7 16 -4 9 3 34 6 57 7 33
0 38 2 22 9 -11 5 -22 8 -25 8 -3 -1 -20 -3 -37 -5z"/>
<path d="M2030 440 c-35 -15 -39 -19 -20 -19 14 0 43 9 65 19 53 24 15 24 -45
0z"/>
<path d="M1115 380 c-3 -5 1 -10 10 -10 9 0 13 5 10 10 -3 6 -8 10 -10 10 -2
0 -7 -4 -10 -10z"/>
<path d="M10 40 c0 -5 5 -10 10 -10 6 0 10 5 10 10 0 6 -4 10 -10 10 -5 0 -10
-4 -10 -10z"/>
</g>
</svg>
